<svg xmlns="http://www.w3.org/2000/svg" width="200" height="200" viewBox="0 0 200 200">
<defs>
<radialGradient id="queen-bg" cx="100" cy="90" r="130" gradientUnits="userSpaceOnUse"><stop offset="0" stop-color="#17140f"/><stop offset=".6" stop-color="#100e0b"/><stop offset="1" stop-color="#08080a"/></radialGradient>
<radialGradient id="queen-glow" cx="100" cy="82" r="84" gradientUnits="userSpaceOnUse"><stop offset="0" stop-color="#8a3fb0" stop-opacity=".8"/><stop offset=".5" stop-color="#8a3fb0" stop-opacity=".34"/><stop offset="1" stop-color="#8a3fb0" stop-opacity="0"/></radialGradient>
<linearGradient id="queen-body" x1="70" y1="40" x2="130" y2="200" gradientUnits="userSpaceOnUse"><stop offset="0" stop-color="#1c1812"/><stop offset="1" stop-color="#0c0b09"/></linearGradient>
<linearGradient id="queen-rim" x1="30" y1="20" x2="170" y2="190" gradientUnits="userSpaceOnUse"><stop offset="0" stop-color="#f2dfa4"/><stop offset=".5" stop-color="#d4af5f"/><stop offset="1" stop-color="#8a6a24"/></linearGradient>
<clipPath id="queen-clip"><circle cx="100" cy="100" r="94"/></clipPath><radialGradient id="queen-amber" cx="100" cy="58" r="46" gradientUnits="userSpaceOnUse"><stop offset="0" stop-color="#f3ae3f" stop-opacity=".55"/><stop offset="1" stop-color="#f3ae3f" stop-opacity="0"/></radialGradient><linearGradient id="queen-gold" x1="0" y1="0" x2="0" y2="1"><stop offset="0" stop-color="#f2dfa4"/><stop offset="1" stop-color="#b08a3a"/></linearGradient>
<g id="queen-fig"><path d="M156 200L156 68" fill="none" stroke-width="4.5" stroke-linecap="round" stroke-linejoin="round"/><path d="M156 34C163 43 163 52 156 60C149 52 149 43 156 34Z"/><path d="M156 58C160 48 170 46 175 52C168 54 162 58 156 66ZM156 58C152 48 142 46 137 52C144 54 150 58 156 66Z"/><path d="M148 68H164" fill="none" stroke-width="3.4" stroke-linecap="round" stroke-linejoin="round"/><path d="M16 200C18 168 38 146 70 138C82 135 90 130 91 116L109 116C110 130 118 135 130 138C162 146 182 168 184 200Z"/><path d="M79 80C71 102 71 128 60 146L90 140C86 120 84 100 86 88Z"/><g transform="matrix(-1 0 0 1 200 0)"><path d="M79 80C71 102 71 128 60 146L90 140C86 120 84 100 86 88Z"/></g><path d="M80 86C78 62 88 52 100 52C112 52 122 62 120 86Z"/><path d="M100 62C112 62 119 73 119 87C119 101 110 112 100 114C90 112 81 101 81 87C81 73 88 62 100 62Z"/></g>
</defs>
<rect width="200" height="200" fill="#08080a"/>
<circle cx="100" cy="100" r="100" fill="url(#queen-bg)"/>
<g clip-path="url(#queen-clip)">
<circle cx="100" cy="82" r="84" fill="url(#queen-glow)"/><circle cx="100" cy="58" r="46" fill="url(#queen-amber)"/>
<use href="#queen-fig" x="2.2" fill="#8a6a24" stroke="#8a6a24" opacity=".55"/>
<use href="#queen-fig" x="-3" y="-2.2" fill="url(#queen-rim)" stroke="url(#queen-rim)"/>
<use href="#queen-fig" fill="url(#queen-body)" stroke="url(#queen-body)"/><path d="M77 76L72 38L87 55L94 30L100 49L106 30L113 55L128 38L123 76Z" fill="url(#queen-gold)"/><path d="M77 66H123L123 77L77 77Z" fill="#b08a3a"/><path d="M78 71.5H122" fill="none" stroke="#f2dfa4" stroke-width="1" stroke-linecap="round" opacity="0.8"/><g fill="#f2dfa4"><circle cx="72" cy="38" r="3"/><circle cx="94" cy="30" r="3"/><circle cx="106" cy="30" r="3"/><circle cx="128" cy="38" r="3"/><circle cx="86" cy="71.5" r="1.8"/><circle cx="114" cy="71.5" r="1.8"/></g><circle cx="100" cy="71.5" r="3.4" fill="#b45ae0" stroke="#f2dfa4" stroke-width="1"/><g fill="#f2dfa4"><ellipse cx="91.5" cy="92" rx="4" ry="1.8" transform="rotate(6 91.5 92)"/><ellipse cx="108.5" cy="92" rx="4" ry="1.8" transform="rotate(-6 108.5 92)"/></g><path d="M87.9 90.8l-2.6 -2.2M112.1 90.8l2.6 -2.2" fill="none" stroke="#f2dfa4" stroke-width="1.1" stroke-linecap="round"/><path d="M38 152C58 142 80 139 92 139M108 139C120 139 142 142 162 152" fill="none" stroke="#cbb788" stroke-width="8" stroke-linecap="round"/><g fill="#0c0b09"><circle cx="54" cy="146" r="1.5"/><circle cx="72" cy="141" r="1.5"/><circle cx="128" cy="141" r="1.5"/><circle cx="146" cy="146" r="1.5"/></g><path d="M34 158C58 148 80 145 92 145M108 145C120 145 142 148 166 158" fill="none" stroke="#d4af5f" stroke-width="1.4" stroke-linecap="round"/><path d="M88 150Q100 166 112 150" fill="none" stroke="#d4af5f" stroke-width="1.5" stroke-linecap="round"/><circle cx="100" cy="162" r="3.6" fill="#b45ae0" stroke="#f2dfa4" stroke-width="1"/><circle cx="156" cy="48" r="2.6" fill="#f2dfa4"/>
</g>
<circle cx="100" cy="100" r="95.5" fill="none" stroke="#d4af5f" stroke-width="3"/>
<circle cx="100" cy="100" r="91" fill="none" stroke="#8a6a24" stroke-width="1" opacity=".7"/>
</svg>
