<svg xmlns="http://www.w3.org/2000/svg" width="200" height="200" viewBox="0 0 200 200">
<defs>
<radialGradient id="shieldmaiden-bg" cx="100" cy="90" r="130" gradientUnits="userSpaceOnUse"><stop offset="0" stop-color="#17140f"/><stop offset=".6" stop-color="#100e0b"/><stop offset="1" stop-color="#08080a"/></radialGradient>
<radialGradient id="shieldmaiden-glow" cx="100" cy="82" r="84" gradientUnits="userSpaceOnUse"><stop offset="0" stop-color="#d27d3c" stop-opacity=".82"/><stop offset=".5" stop-color="#d27d3c" stop-opacity=".34"/><stop offset="1" stop-color="#d27d3c" stop-opacity="0"/></radialGradient>
<linearGradient id="shieldmaiden-body" x1="70" y1="40" x2="130" y2="200" gradientUnits="userSpaceOnUse"><stop offset="0" stop-color="#1c1812"/><stop offset="1" stop-color="#0c0b09"/></linearGradient>
<linearGradient id="shieldmaiden-rim" x1="30" y1="20" x2="170" y2="190" gradientUnits="userSpaceOnUse"><stop offset="0" stop-color="#f2dfa4"/><stop offset=".5" stop-color="#d4af5f"/><stop offset="1" stop-color="#8a6a24"/></linearGradient>
<clipPath id="shieldmaiden-clip"><circle cx="100" cy="100" r="94"/></clipPath>
<clipPath id="shieldmaiden-boards"><circle cx="46" cy="168" r="36"/></clipPath>
<path id="shieldmaiden-lock" d="M80 84C64 94 60 114 46 136C62 138 76 129 86 118C82 106 82 95 88 87Z"/>
<g id="shieldmaiden-fig"><path d="M156 200L160 62" fill="none" stroke-width="4.5" stroke-linecap="round"/><path d="M160 28C168 38 168 50 160 58C152 50 152 38 160 28Z"/><path d="M152 62H168" fill="none" stroke-width="4" stroke-linecap="round"/><use href="#shieldmaiden-lock"/><use href="#shieldmaiden-lock" transform="matrix(-1 0 0 1 200 0)"/><path d="M22 200C24 170 42 150 68 142C81 138 88 131 89 117L111 117C112 131 119 138 132 142C158 150 176 170 178 200Z"/><path d="M48 152C50 141 59 136 68 138C71 131 79 129 86 133C90 128 96 128 100 132C104 128 110 128 114 133C121 129 129 131 132 138C141 136 150 141 152 152C135 147 117 146 100 148C83 146 65 147 48 152Z"/><ellipse cx="100" cy="93" rx="16" ry="21"/><path d="M78 86C76 60 87 47 100 47C113 47 124 60 122 86C114 80 86 80 78 86Z"/></g>
</defs>
<rect width="200" height="200" fill="#08080a"/>
<circle cx="100" cy="100" r="100" fill="url(#shieldmaiden-bg)"/>
<g clip-path="url(#shieldmaiden-clip)">
<circle cx="100" cy="82" r="84" fill="url(#shieldmaiden-glow)"/>
<use href="#shieldmaiden-fig" x="2.2" fill="#8a6a24" stroke="#8a6a24" opacity=".55"/>
<use href="#shieldmaiden-fig" x="-3" y="-2.2" fill="url(#shieldmaiden-rim)" stroke="url(#shieldmaiden-rim)"/>
<use href="#shieldmaiden-fig" fill="url(#shieldmaiden-body)" stroke="url(#shieldmaiden-body)"/>
<path d="M160 34V52" fill="none" stroke="#f2dfa4" stroke-width="1.2" stroke-linecap="round"/>
<path d="M100 50V78" fill="none" stroke="#8a6a24" stroke-width="1.4" stroke-linecap="round"/><path d="M79 82Q100 75 121 82" fill="none" stroke="#d4af5f" stroke-width="2.6" stroke-linecap="round"/><g fill="#f2dfa4"><circle cx="86" cy="79.6" r="1.3"/><circle cx="93" cy="78.2" r="1.3"/><circle cx="107" cy="78.2" r="1.3"/><circle cx="114" cy="79.6" r="1.3"/></g><path d="M100 80V99" fill="none" stroke="#d4af5f" stroke-width="3.2" stroke-linecap="round"/><path d="M79 83C77 60 88 49 100 49C112 49 123 60 121 83" fill="none" stroke="#d4af5f" stroke-width="1.6" stroke-linecap="round"/><path d="M85 100C87 109 93 114 100 114C107 114 113 109 115 100" fill="none" stroke="#8a6a24" stroke-width="1.4" stroke-linecap="round"/>
<g fill="#f2dfa4"><ellipse cx="91.5" cy="93" rx="3.6" ry="1.6" transform="rotate(8 91.5 93)"/><ellipse cx="108.5" cy="93" rx="3.6" ry="1.6" transform="rotate(-8 108.5 93)"/></g>
<g fill="none" stroke="#8a6a24" stroke-width="1.1" stroke-linecap="round"><path d="M75 92C66 104 61 118 52 132M81 97C75 108 70 120 63 130"/><path d="M125 92C134 104 139 118 148 132M119 97C125 108 130 120 137 130"/></g>
<path d="M48 152C65 147 83 146 100 148C117 146 135 147 152 152" fill="none" stroke="#d4af5f" stroke-width="1.6" stroke-linecap="round"/><path d="M58 146l2 -5M72 142l1 -5M128 142l-1 -5M142 146l-2 -5" fill="none" stroke="#8a6a24" stroke-width="1.2" stroke-linecap="round"/>
<path d="M84 167Q92 156 100 165Q108 156 116 167" fill="none" stroke="#d4af5f" stroke-width="2.2" stroke-linecap="round"/><path d="M100 166V200M76 179Q100 172 124 179M72 191Q100 184 128 191" fill="none" stroke="#8a6a24" stroke-width="1.3" stroke-linecap="round"/>
<g fill="#15120d" stroke="#d4af5f" stroke-width="1.5"><ellipse cx="86" cy="121" rx="4.4" ry="5.6" transform="rotate(6 86 121)"/><ellipse cx="85" cy="130" rx="4.4" ry="5.6" transform="rotate(6 85 130)"/><ellipse cx="84" cy="139" rx="4.4" ry="5.6" transform="rotate(6 84 139)"/><ellipse cx="83" cy="148" rx="4.4" ry="5.6" transform="rotate(6 83 148)"/><ellipse cx="114" cy="121" rx="4.4" ry="5.6" transform="rotate(-6 114 121)"/><ellipse cx="115" cy="130" rx="4.4" ry="5.6" transform="rotate(-6 115 130)"/><ellipse cx="116" cy="139" rx="4.4" ry="5.6" transform="rotate(-6 116 139)"/><ellipse cx="117" cy="148" rx="4.4" ry="5.6" transform="rotate(-6 117 148)"/></g><g fill="#f2dfa4"><rect x="79" y="153" width="8" height="3.6" rx="1.4" transform="rotate(6 83 154.8)"/><rect x="113" y="153" width="8" height="3.6" rx="1.4" transform="rotate(-6 117 154.8)"/></g>
<circle cx="46" cy="168" r="38" fill="#1a150f" stroke="#d4af5f" stroke-width="3.4"/>
<g clip-path="url(#shieldmaiden-boards)" fill="none" stroke-linecap="round"><path d="M28 128V210M37 128V210M55 128V210M64 128V210" stroke="#33271a" stroke-width="1.2"/><path d="M46 130V206M8 168H84" stroke="#8a6a24" stroke-width="2.2"/></g>
<circle cx="46" cy="168" r="28" fill="none" stroke="#8a6a24" stroke-width="1.2"/>
<g fill="#d4af5f"><circle cx="79" cy="168" r="1.6"/><circle cx="69.3" cy="144.7" r="1.6"/><circle cx="46" cy="135" r="1.6"/><circle cx="22.7" cy="144.7" r="1.6"/><circle cx="13" cy="168" r="1.6"/><circle cx="22.7" cy="191.3" r="1.6"/><circle cx="46" cy="201" r="1.6"/><circle cx="69.3" cy="191.3" r="1.6"/></g>
<circle cx="46" cy="168" r="9" fill="#d4af5f"/><circle cx="43" cy="165" r="3" fill="#f2dfa4"/>
<path d="M19.5 141A38 38 0 0 1 46 130" fill="none" stroke="#f2dfa4" stroke-width="1.6" stroke-linecap="round"/>
</g>
<circle cx="100" cy="100" r="95.5" fill="none" stroke="#d4af5f" stroke-width="3"/>
<circle cx="100" cy="100" r="91" fill="none" stroke="#8a6a24" stroke-width="1" opacity=".7"/>
</svg>
